HIERARCHY
ROOT Hips
{
	OFFSET 0.000000 89.005402 0.000000
	CHANNELS 6 Xposition Yposition Zposition Xrotation Yrotation Zrotation
	JOINT Spine
	{
		OFFSET 0.116900 10.681000 0.373400
		CHANNELS 3 Xrotation Yrotation Zrotation
		JOINT Spine1
		{
			OFFSET 0.000000 13.840401 0.053500
			CHANNELS 3 Xrotation Yrotation Zrotation
			JOINT Spine2
			{
				OFFSET 0.000000 14.712700 -0.366200
				CHANNELS 3 Xrotation Yrotation Zrotation
				JOINT Neck
				{
					OFFSET 0.000000 35.415497 -3.314200
					CHANNELS 3 Xrotation Yrotation Zrotation
					JOINT Head
					{
						OFFSET 0.000000 16.899200 1.218300
						CHANNELS 3 Xrotation Yrotation Zrotation
						JOINT HeadTop_End
						{
							OFFSET 0.000000 22.206207 2.192500
							CHANNELS 3 Xrotation Yrotation Zrotation
							End Site
							{
								OFFSET 0.000000 22.314178 0.000000
							}
						}
					}
				}
				JOINT LeftShoulder
				{
					OFFSET 12.896400 26.716293 -4.548400
					CHANNELS 3 Xrotation Yrotation Zrotation
					JOINT LeftArm
					{
						OFFSET 19.027000 -4.857010 -1.718400
						CHANNELS 3 Xrotation Yrotation Zrotation
						JOINT LeftForeArm
						{
							OFFSET 24.179897 0.000000 0.000000
							CHANNELS 3 Xrotation Yrotation Zrotation
							JOINT LeftHand
							{
								OFFSET 27.156403 0.000000 0.000000
								CHANNELS 3 Xrotation Yrotation Zrotation
								JOINT LeftHandIndex1
								{
									OFFSET 16.441200 0.000000 0.000000
									CHANNELS 3 Xrotation Yrotation Zrotation
									JOINT LeftHandIndex2
									{
										OFFSET 4.821899 0.000000 0.000000
										CHANNELS 3 Xrotation Yrotation Zrotation
										JOINT LeftHandIndex3
										{
											OFFSET 6.386497 0.000000 0.000000
											CHANNELS 3 Xrotation Yrotation Zrotation
											JOINT LeftHandIndex4
											{
												OFFSET 5.188988 0.000000 0.000000
												CHANNELS 3 Xrotation Yrotation Zrotation
												End Site
												{
													OFFSET -0.178703 5.185913 0.000177
												}
											}
										}
									}
								}
								JOINT LeftHandThumb1
								{
									OFFSET 6.534897 -5.032593 5.900300
									CHANNELS 3 Xrotation Yrotation Zrotation
									JOINT LeftHandThumb2
									{
										OFFSET 3.818176 -2.204422 2.204423
										CHANNELS 3 Xrotation Yrotation Zrotation
										JOINT LeftHandThumb3
										{
											OFFSET 3.252098 -1.877594 1.877601
											CHANNELS 3 Xrotation Yrotation Zrotation
											JOINT LeftHandThumb4
											{
												OFFSET 5.251778 -3.032120 3.032117
												CHANNELS 3 Xrotation Yrotation Zrotation
												End Site
												{
													OFFSET 0.000023 6.780014 0.000000
												}
											}
										}
									}
								}
							}
						}
					}
				}
				JOINT RightShoulder
				{
					OFFSET -12.896300 26.716293 -4.548400
					CHANNELS 3 Xrotation Yrotation Zrotation
					JOINT RightArm
					{
						OFFSET -19.027000 -4.857010 -1.718400
						CHANNELS 3 Xrotation Yrotation Zrotation
						JOINT RightForeArm
						{
							OFFSET -24.179897 0.000000 0.000000
							CHANNELS 3 Xrotation Yrotation Zrotation
							JOINT RightHand
							{
								OFFSET -27.156403 0.000000 0.000000
								CHANNELS 3 Xrotation Yrotation Zrotation
								JOINT RightHandThumb1
								{
									OFFSET -6.591202 -4.852203 5.988100
									CHANNELS 3 Xrotation Yrotation Zrotation
									JOINT RightHandThumb2
									{
										OFFSET -3.818176 -2.204422 2.204423
										CHANNELS 3 Xrotation Yrotation Zrotation
										JOINT RightHandThumb3
										{
											OFFSET -3.252098 -1.877594 1.877601
											CHANNELS 3 Xrotation Yrotation Zrotation
											JOINT RightHandThumb4
											{
												OFFSET -5.251778 -3.032120 3.032117
												CHANNELS 3 Xrotation Yrotation Zrotation
												End Site
												{
													OFFSET -0.000023 6.780014 0.000000
												}
											}
										}
									}
								}
								JOINT RightHandIndex1
								{
									OFFSET -16.029404 0.000000 0.000000
									CHANNELS 3 Xrotation Yrotation Zrotation
									JOINT RightHandIndex2
									{
										OFFSET -5.213303 0.000000 0.000000
										CHANNELS 3 Xrotation Yrotation Zrotation
										JOINT RightHandIndex3
										{
											OFFSET -6.386528 0.000000 0.000000
											CHANNELS 3 Xrotation Yrotation Zrotation
											JOINT RightHandIndex4
											{
												OFFSET -5.189026 0.000000 0.000000
												CHANNELS 3 Xrotation Yrotation Zrotation
												End Site
												{
													OFFSET 0.236702 5.183624 0.001972
												}
											}
										}
									}
								}
							}
						}
					}
				}
			}
		}
	}
	JOINT LeftUpLeg
	{
		OFFSET 14.073000 -7.904099 -1.463000
		CHANNELS 3 Xrotation Yrotation Zrotation
		JOINT LeftLeg
		{
			OFFSET -0.109806 -34.073280 4.093200
			CHANNELS 3 Xrotation Yrotation Zrotation
			JOINT LeftFoot
			{
				OFFSET 0.109806 -29.899420 -6.319000
				CHANNELS 3 Xrotation Yrotation Zrotation
				JOINT LeftToeBase
				{
					OFFSET 1.551100 -14.988700 20.535801
					CHANNELS 3 Xrotation Yrotation Zrotation
					JOINT LeftToe_End
					{
						OFFSET 0.221200 0.570800 13.248301
						CHANNELS 3 Xrotation Yrotation Zrotation
						End Site
						{
							OFFSET 0.000000 13.262435 0.000000
						}
					}
				}
			}
		}
	}
	JOINT RightUpLeg
	{
		OFFSET -13.839300 -7.904099 -1.463000
		CHANNELS 3 Xrotation Yrotation Zrotation
		JOINT RightLeg
		{
			OFFSET 0.109694 -34.073219 4.093300
			CHANNELS 3 Xrotation Yrotation Zrotation
			JOINT RightFoot
			{
				OFFSET -0.109694 -29.899384 -6.319200
				CHANNELS 3 Xrotation Yrotation Zrotation
				JOINT RightToeBase
				{
					OFFSET -1.551100 -14.988700 20.535801
					CHANNELS 3 Xrotation Yrotation Zrotation
					JOINT RightToe_End
					{
						OFFSET -0.221200 0.570900 13.248299
						CHANNELS 3 Xrotation Yrotation Zrotation
						End Site
						{
							OFFSET 0.000000 13.262440 0.000000
						}
					}
				}
			}
		}
	}
}
MOTION
Frames: 8
Frame Time: 0.033333
-0.210914 86.388779 1.642899 -7.788586 -3.570650 -0.534060 -1.744360 1.486557 -0.889863 -0.440215 0.431156 -0.417340 -0.438166 0.433025 -0.416986 4.588100 -1.279273 -0.901524 14.874805 -8.347116 4.930233 0.000001 -0.000001 -0.000000 0.834474 0.646671 -10.394558 27.982607 -50.875620 -26.774108 0.000189 -101.018771 0.000166 -32.355815 1.732775 -36.379251 -0.021342 0.131039 -5.739186 0.431570 2.403724 -20.355299 0.000659 0.095972 -0.795323 0.000000 -0.000000 0.000003 1.080887 10.617899 16.225789 5.487318 14.757761 -0.529077 -2.074738 -3.828213 3.516741 -0.000000 0.000001 0.000000 1.645689 2.506465 10.026727 -33.913945 26.166842 66.153169 0.000111 114.040226 -0.000112 35.064391 34.943378 -19.881753 -13.347936 -4.257340 8.681690 13.913691 -30.738822 1.911467 16.318345 -41.323502 -0.684257 0.000003 -0.000001 -0.000000 15.167876 -19.208063 42.384804 6.629853 -6.940983 87.367272 1.264897 -4.003793 35.053333 -0.000002 0.000001 0.000000 4.243114 17.538744 8.904210 15.834395 8.994550 -0.388785 -9.283361 10.956152 -9.413137 -0.219223 -0.000010 0.000001 -0.000000 0.000002 0.000000 5.711051 -13.425848 -6.314686 15.203475 -9.294699 -1.642973 -9.787629 -13.698056 9.800340 -0.000063 0.000026 -0.000003 0.000000 0.000000 -0.000000 
-0.085055 86.312210 1.633572 -7.812095 -3.370809 -0.651658 -1.600896 1.468203 -0.825649 -0.393465 0.428949 -0.404995 -0.391459 0.430784 -0.404435 4.715317 -1.322072 -0.955451 13.972333 -8.730138 5.157110 0.000000 -0.000000 -0.000000 0.834299 0.631623 -10.377491 27.722080 -50.851677 -26.905990 -0.000071 -101.182791 -0.000071 -31.880813 1.806334 -36.295834 -0.014369 0.250528 -6.332292 0.431603 2.403721 -20.355314 0.000504 0.085441 -0.708054 -0.000000 0.000001 -0.000000 1.213203 10.923882 16.134479 5.507314 14.835231 -0.544647 -2.050146 -3.731340 3.499648 -0.000002 0.000002 -0.000002 1.641669 2.500094 10.010507 -34.146588 25.911287 66.186876 0.000040 114.103624 -0.000038 34.811118 34.782824 -19.661616 -13.347936 -4.257340 8.681693 13.913692 -30.738822 1.911468 16.318346 -41.323495 -0.684260 0.000003 -0.000001 -0.000000 15.167876 -19.208063 42.384800 6.629852 -6.940980 87.367272 1.264893 -4.003796 35.053337 -0.000001 0.000000 0.000002 3.837812 17.311922 8.991463 16.567896 8.964854 -0.234429 -9.665373 10.971996 -9.450372 -0.222570 -0.000009 -0.000002 -0.000000 0.000000 -0.000000 5.711785 -13.368985 -6.224333 15.376904 -9.201966 -1.698415 -9.845032 -13.930950 9.908956 -0.003865 -0.000015 -0.000002 0.000000 0.000002 0.000000 
0.079938 86.189095 1.607020 -7.868014 -3.180242 -0.816085 -1.334277 1.446825 -0.713067 -0.307155 0.427631 -0.383247 -0.305226 0.429395 -0.382333 4.809946 -1.373424 -1.024975 13.149766 -9.178996 5.407594 0.000000 0.000001 -0.000000 0.834537 0.608253 -10.358123 27.365855 -50.841797 -27.037326 -0.000118 -101.395394 -0.000144 -31.209095 1.739916 -36.228047 -0.005946 0.366559 -6.911958 0.431595 2.403718 -20.355306 0.000400 0.074726 -0.619169 0.000002 0.000000 -0.000005 1.345628 11.227943 16.047021 5.527235 14.912311 -0.560166 -2.025779 -3.635784 3.482787 -0.000001 -0.000001 -0.000002 1.637036 2.492266 9.992357 -34.506659 25.622587 66.212974 -0.000027 114.177322 0.000029 34.525080 34.644441 -19.390753 -13.347936 -4.257339 8.681689 13.913690 -30.738819 1.911465 16.318346 -41.323498 -0.684260 0.000003 0.000001 -0.000001 15.167876 -19.208063 42.384800 6.629857 -6.940988 87.367272 1.264894 -4.003795 35.053337 -0.000000 -0.000000 0.000001 3.299835 17.034989 9.138502 17.627402 8.959408 -0.065654 -10.220880 10.982082 -9.507638 -0.219903 0.000012 0.000001 -0.000000 -0.000002 -0.000000 5.638216 -13.306610 -6.157156 15.760984 -9.085797 -1.736341 -9.985686 -14.165456 10.051083 -0.027444 0.000002 -0.000001 -0.000000 -0.000000 -0.000000 
0.287508 85.997017 1.556528 -7.977976 -3.014064 -1.051314 -0.901809 1.427037 -0.526288 -0.168443 0.429282 -0.347365 -0.166673 0.430939 -0.345923 4.830735 -1.427513 -1.096974 12.613595 -9.630590 5.661958 -0.000000 0.000002 -0.000000 0.835430 0.576212 -10.338882 26.969255 -50.916123 -27.050059 0.000162 -101.609214 0.000189 -30.454321 1.536587 -36.238238 0.003466 0.475936 -7.462773 0.431577 2.403723 -20.355313 0.000288 0.063896 -0.529449 -0.000001 0.000000 -0.000002 1.475440 11.524805 15.966901 5.546751 14.987622 -0.575349 -2.002271 -3.543775 3.466537 -0.000003 0.000002 0.000001 1.634351 2.487127 9.982479 -34.989908 25.345348 66.210242 0.000034 114.276865 -0.000044 34.254498 34.550881 -19.083089 -13.347936 -4.257341 8.681690 13.913690 -30.738826 1.911462 16.318353 -41.323498 -0.684257 0.000001 0.000001 -0.000003 15.167873 -19.208063 42.384804 6.629852 -6.940984 87.367272 1.264896 -4.003793 35.053333 0.000001 0.000001 0.000000 2.595495 16.699884 9.377621 19.137229 8.953441 0.101865 -11.019510 11.050152 -9.576623 -0.205268 0.000010 0.000002 -0.000000 0.000002 0.000000 5.462650 -13.251362 -6.114907 16.454421 -8.952844 -1.749526 -10.251920 -14.390024 10.236872 -0.143351 0.000002 0.000000 -0.000000 -0.000002 -0.000000 
0.538622 85.730011 1.479738 -8.131896 -2.874221 -1.372447 -0.338765 1.410297 -0.264875 0.010753 0.434109 -0.297177 0.012291 0.435658 -0.295090 4.787275 -1.480062 -1.156270 12.356010 -10.040845 5.917719 -0.000001 0.000000 0.000000 0.837581 0.531761 -10.322959 26.620288 -51.125479 -26.854977 -0.000120 -101.764436 -0.000146 -29.814503 1.318242 -36.383820 0.013267 0.575333 -7.968168 0.431598 2.403721 -20.355302 0.000200 0.053137 -0.440282 -0.000001 0.000000 -0.000004 1.599509 11.808735 15.897825 5.565473 15.059616 -0.589889 -1.980164 -3.457580 3.451296 -0.000001 -0.000000 0.000000 1.635580 2.488198 9.988353 -35.522000 25.105376 66.178618 -0.000038 114.424042 0.000024 34.028802 34.484242 -18.750584 -13.347933 -4.257340 8.681691 13.913691 -30.738822 1.911463 16.318345 -41.323502 -0.684257 -0.000000 0.000003 -0.000001 15.167876 -19.208059 42.384800 6.629854 -6.940985 87.367272 1.264894 -4.003798 35.053337 0.000004 -0.000001 0.000001 1.717240 16.315522 9.725184 21.095331 8.959764 0.260854 -12.061846 11.168262 -9.657685 -0.162019 0.000002 0.000001 0.000000 0.000002 0.000000 5.180778 -13.184908 -6.082720 17.454595 -8.771857 -1.720275 -10.640453 -14.669310 10.445331 -0.325581 0.000003 0.000000 -0.000000 0.000003 0.000000 
0.804543 85.375893 1.383076 -8.197538 -2.758826 -1.764106 0.264121 1.399421 0.057383 0.200560 0.441693 -0.234136 0.201810 0.443178 -0.231412 4.718092 -1.528698 -1.185565 12.274635 -10.381117 6.188419 0.000001 0.000001 0.000000 0.842067 0.469934 -10.318023 26.439297 -51.509827 -26.362592 0.000043 -101.784087 0.000014 -29.551841 1.345490 -36.806243 0.022946 0.663150 -8.420675 0.431597 2.403715 -20.355287 0.000119 0.042649 -0.353455 -0.000002 -0.000001 0.000001 1.715798 12.075689 15.840704 5.583060 15.127161 -0.603560 -1.959748 -3.378185 3.437257 -0.000000 -0.000002 -0.000001 1.641974 2.497876 10.014614 -35.958648 24.911174 66.152588 -0.000002 114.655927 -0.000012 33.860243 34.395637 -18.408094 -13.347936 -4.257340 8.681692 13.913687 -30.738816 1.911467 16.318343 -41.323498 -0.684261 0.000002 -0.000002 0.000000 15.167871 -19.208061 42.384804 6.629851 -6.940986 87.367272 1.264892 -4.003794 35.053333 0.000000 -0.000000 -0.000000 0.540300 15.939433 10.232259 23.484781 8.949903 0.342228 -13.336130 11.313617 -9.730042 -0.394358 0.000000 -0.000002 0.000000 0.000002 0.000000 4.624749 -13.090165 -6.069102 18.837469 -8.563938 -1.603997 -11.206168 -14.977845 10.633314 -0.553134 0.000021 -0.000000 0.000000 -0.000002 -0.000000 
1.062405 84.953094 1.272122 -8.100393 -2.750455 -2.129598 0.788920 1.412262 0.324542 0.363736 0.453245 -0.181286 0.364835 0.454636 -0.178046 4.667385 -1.571030 -1.204258 12.228764 -10.677561 6.472098 0.000001 -0.000000 -0.000000 0.846432 0.429535 -10.330982 26.412266 -51.929105 -25.716023 -0.000131 -101.700895 -0.000114 -29.623172 1.730316 -37.522378 0.032056 0.739208 -8.821782 0.431577 2.403725 -20.355294 0.000079 0.032556 -0.269722 -0.000001 0.000001 -0.000003 1.823418 12.323427 15.794037 5.599466 15.189936 -0.616272 -1.941107 -3.305902 3.424469 0.000000 -0.000001 0.000000 1.650398 2.510619 10.049103 -36.204511 24.796694 66.181678 0.000038 114.904368 -0.000043 33.798607 34.291330 -18.232406 -13.347936 -4.257343 8.681692 13.913690 -30.738822 1.911459 16.318343 -41.323498 -0.684261 0.000003 -0.000001 -0.000001 15.167876 -19.208061 42.384804 6.629857 -6.940981 87.367272 1.264895 -4.003794 35.053337 0.000001 -0.000001 0.000000 -0.881043 15.675325 10.842356 26.056779 8.902061 0.228504 -14.717287 11.383707 -9.712687 -0.617949 -0.000019 -0.000002 -0.000000 0.000003 0.000000 3.344941 -13.003328 -6.169741 21.174934 -8.509791 -1.405430 -12.231122 -14.993365 10.288634 -0.803948 0.000004 -0.000001 -0.000000 0.000000 -0.000000 
1.292523 84.470886 1.136877 -7.867668 -2.949898 -2.357862 1.260259 1.461047 0.409902 0.509144 0.470668 -0.170744 0.510366 0.471795 -0.167032 4.619643 -1.597372 -1.231855 12.253977 -10.903514 6.751654 -0.000001 -0.000001 0.000000 0.846801 0.458569 -10.361506 26.453201 -52.257531 -25.046553 0.000099 -101.578061 0.000108 -29.829024 2.315254 -38.327429 0.039643 0.798647 -9.149025 0.431588 2.403726 -20.355308 0.000025 0.022684 -0.187972 0.000000 0.000001 -0.000001 1.918259 12.545177 15.763706 5.614279 15.246516 -0.627748 -1.925304 -3.244605 3.413604 0.000001 0.000002 -0.000001 1.662108 2.527296 10.097999 -36.326658 24.863309 66.253887 0.000077 115.040630 -0.000082 33.971469 34.248191 -18.459650 -13.347934 -4.257341 8.681690 13.913691 -30.738826 1.911466 16.318346 -41.323505 -0.684257 -0.000001 0.000002 -0.000002 15.167876 -19.208065 42.384804 6.629856 -6.940984 87.367279 1.264893 -4.003792 35.053337 -0.000000 -0.000001 0.000000 -2.384799 15.558445 11.417732 28.614314 8.799089 -0.108693 -16.108907 11.432348 -9.570981 -0.678345 0.000012 0.000001 -0.000000 0.000002 0.000000 1.550504 -12.972674 -6.550769 24.016810 -8.493349 -1.147174 -13.476998 -14.662702 9.839012 -1.113448 0.000000 0.000001 0.000000 -0.000001 0.000000 
